<svg xmlns="http://www.w3.org/2000/svg" viewBox="0 0 64 64">
  <!-- Achtergrond cirkel -->
  <circle cx="32" cy="32" r="30" fill="#d97706"/>

  <!-- Vuursteen artefact - gestileerde vorm -->
  <path d="M32 8
           L44 18
           L48 32
           L44 46
           L36 54
           L24 54
           L16 44
           L14 28
           L20 16
           Z"
        fill="#78716c"
        stroke="#44403c"
        stroke-width="1.5"/>

  <!-- Afslagnegatief 1 -->
  <path d="M24 20 L32 18 L34 28 L26 30 Z"
        fill="#a8a29e"
        stroke="#57534e"
        stroke-width="0.5"/>

  <!-- Afslagnegatief 2 -->
  <path d="M36 24 L44 28 L42 38 L34 34 Z"
        fill="#a8a29e"
        stroke="#57534e"
        stroke-width="0.5"/>

  <!-- Afslagnegatief 3 -->
  <path d="M22 34 L30 32 L32 44 L24 46 Z"
        fill="#a8a29e"
        stroke="#57534e"
        stroke-width="0.5"/>

  <!-- Retouche/werkkant aan bovenzijde -->
  <path d="M20 16 L24 14 L28 15 L32 13 L36 15 L40 14 L44 18"
        fill="none"
        stroke="#292524"
        stroke-width="1.5"
        stroke-linecap="round"/>

  <!-- Slagbult indicatie -->
  <ellipse cx="28" cy="48" rx="4" ry="2" fill="#57534e" opacity="0.5"/>
</svg>
